<?xml version="1.0" standalone="no"?><!DOCTYPE svg PUBLIC "-//W3C//DTD SVG 1.1//EN" "http://www.w3.org/Graphics/SVG/1.1/DTD/svg11.dtd"><svg t="1501231719773" class="icon" style="" viewBox="0 0 1024 1024" version="1.1" xmlns="http://www.w3.org/2000/svg" p-id="3352" xmlns:xlink="http://www.w3.org/1999/xlink" width="32" height="32"><defs><style type="text/css"></style></defs><path d="M512 0C230.4 0 0 230.4 0 512s230.4 512 512 512 512-230.4 512-512S793.6 0 512 0z m0 162.133333c93.866667 0 170.666667 76.8 170.666667 170.666667s-76.8 170.666667-170.666667 170.666667-170.666667-76.8-170.666667-170.666667 76.8-170.666667 170.666667-170.666667zM256 763.733333c0-98.133333 55.466667-183.466667 136.533333-226.133333 21.333333 12.8 42.666667 21.333333 64 25.6 4.266667 4.266667 46.933333 140.8 46.933334 140.8h25.6s25.6-136.533333 34.133333-136.533333c25.6-4.266667 46.933333-12.8 68.266667-25.6 81.066667 46.933333 136.533333 132.266667 136.533333 221.866666H256z" fill="#7edbf7" p-id="3353"></path></svg>